# File created by Blade
# Date/Time:  Tue Jan 27 18:55:50 2015
# Frame Rate: 120.000 fps
#------------------------------------------------------
:FULLY-SPECIFIED
:DEGREES
2077
root 0.286024 31.624170 -4.858638 4.961708 -26.313929 -10.145999
Spine 8.659217 2.697453 3.043201
Head 29.585920 23.151744 6.546026
LeftShoulder -21.667346 17.662829 8.592666
LeftArm 4.205683 -31.541198 -77.467344
LeftForeArm -1.292706 -0.000000 110.697511
LeftHand -13.886743 -0.000000 19.939030
LeftHandThumb1 -26.253704 0.000000 33.147579
RightShoulder -8.898130 3.210459 -10.826326
RightArm 16.352609 -21.474078 64.705129
RightForeArm -32.163236 -0.000000 28.442600
RightHand -25.701671 -0.000000 0.174151
RightHandThumb1 -24.326973 -0.000000 -32.862282
LeftUpLeg -6.874549 16.858750 -4.834611
LeftLeg 17.510651 -0.000000 -0.000000
LeftFoot -38.623739 37.816010 -27.187572
LeftToeBase 9.720945 -0.000000 -0.000000
RightUpLeg -46.386226 -39.655680 -11.933514
RightLeg 3.959550 -0.000000 -0.000000
RightFoot -15.392664 -28.172882 11.955155
RightToeBase 0.841361 -0.000000 -0.000000
2078
root 0.272840 31.636310 -4.874160 4.981412 -26.182645 -10.217378
Spine 8.678863 2.656622 3.082599
Head 29.572078 23.024966 6.662601
LeftShoulder -21.607754 17.636958 8.653589
LeftArm 4.200026 -31.384031 -77.454798
LeftForeArm -1.246375 0.000000 110.730378
LeftHand -13.854316 -0.000000 19.863945
LeftHandThumb1 -26.253704 0.000000 33.147579
RightShoulder -8.915846 3.196220 -10.771866
RightArm 16.467545 -21.713208 64.692234
RightForeArm -32.209824 -0.000000 28.337497
RightHand -25.776062 0.000000 0.206542
RightHandThumb1 -24.326973 -0.000000 -32.862282
LeftUpLeg -6.845232 16.687921 -4.724512
LeftLeg 17.428600 -0.000000 -0.000000
LeftFoot -38.544027 37.884484 -27.154546
LeftToeBase 9.727202 -0.000000 -0.000000
RightUpLeg -46.324215 -39.561188 -12.062475
RightLeg 4.628303 -0.000000 -0.000000
RightFoot -14.760055 -28.126901 11.903937
RightToeBase 1.248968 -0.000000 -0.000000
2079
root 0.260581 31.647474 -4.894745 5.066716 -26.066609 -10.294501
Spine 8.633995 2.650760 3.122939
Head 29.544588 22.899981 6.764934
LeftShoulder -21.532953 17.609596 8.725861
LeftArm 4.185494 -31.226200 -77.425406
LeftForeArm -1.228195 -0.000000 110.760019
LeftHand -13.837919 -0.000000 19.844457
LeftHandThumb1 -26.253704 0.000000 33.147579
RightShoulder -8.968554 3.207005 -10.731168
RightArm 16.569263 -21.993349 64.692034
RightForeArm -32.261621 -0.000000 28.199579
RightHand -25.775736 0.000000 0.163448
RightHandThumb1 -24.326973 -0.000000 -32.862282
LeftUpLeg -6.910767 16.516169 -4.626905
LeftLeg 17.393673 -0.000000 -0.000000
LeftFoot -38.460115 37.968877 -27.100365
LeftToeBase 9.699707 -0.000000 -0.000000
RightUpLeg -46.239209 -39.307106 -12.245660
RightLeg 5.296842 -0.000000 -0.000000
RightFoot -13.882442 -28.239379 11.643198
RightToeBase 1.824247 -0.000000 -0.000000
2080
root 0.249318 31.658156 -4.919391 5.187904 -25.941281 -10.369562
Spine 8.557249 2.622608 3.154552
Head 29.488580 22.783300 6.850226
LeftShoulder -21.460155 17.580407 8.793411
LeftArm 4.148270 -31.095738 -77.376163
LeftForeArm -1.213788 -0.000000 110.809479
LeftHand -13.871803 -0.000000 19.821365
LeftHandThumb1 -26.253704 0.000000 33.147579
RightShoulder -9.016814 3.217832 -10.678060
RightArm 16.699475 -22.269831 64.668362
RightForeArm -32.160438 -0.000000 28.049716
RightHand -25.762560 -0.000000 0.197853
RightHandThumb1 -24.326973 -0.000000 -32.862282
LeftUpLeg -7.025755 16.306108 -4.542463
LeftLeg 17.366025 -0.000000 -0.000000
LeftFoot -38.415293 38.050903 -27.112649
LeftToeBase 9.646742 -0.000000 -0.000000
RightUpLeg -46.155867 -38.947256 -12.506608
RightLeg 6.129611 -0.000000 -0.000000
RightFoot -13.241614 -28.370340 11.554704
RightToeBase 2.837770 -0.000000 -0.000000
2081
root 0.235522 31.666360 -4.942721 5.318837 -25.859891 -10.462972
Spine 8.481385 2.639531 3.201189
Head 29.405719 22.674423 6.930937
LeftShoulder -21.389285 17.573550 8.856213
LeftArm 4.126186 -31.001332 -77.335084
LeftForeArm -1.224290 0.000000 110.853652
LeftHand -13.889020 -0.000000 19.747228
LeftHandThumb1 -26.253704 0.000000 33.147579
RightShoulder -9.087916 3.234000 -10.638681
RightArm 16.809634 -22.501388 64.684024
RightForeArm -32.104848 0.000000 27.932652
RightHand -25.689948 -0.000000 0.411795
RightHandThumb1 -24.326973 -0.000000 -32.862282
LeftUpLeg -7.152969 16.179011 -4.438080
LeftLeg 17.379243 -0.000000 -0.000000
LeftFoot -38.382558 38.087531 -27.082831
LeftToeBase 9.628188 -0.000000 -0.000000
RightUpLeg -46.117137 -38.516303 -12.720243
RightLeg 7.127984 -0.000000 -0.000000
RightFoot -12.965847 -28.357614 11.749551
RightToeBase 3.555071 -0.000000 -0.000000
2082
root 0.219083 31.672650 -4.964107 5.441292 -25.833541 -10.572726
Spine 8.411599 2.677723 3.249880
Head 29.340181 22.603696 7.022198
LeftShoulder -21.327901 17.575757 8.926204
LeftArm 4.061880 -30.935660 -77.279890
LeftForeArm -1.238846 -0.000000 110.907147
LeftHand -13.857826 -0.000000 19.690375
LeftHandThumb1 -26.253704 0.000000 33.147579
RightShoulder -9.125265 3.298419 -10.594708
RightArm 16.874082 -22.768234 64.697434
RightForeArm -32.038284 0.000000 27.809845
RightHand -25.669921 -0.000000 0.521177
RightHandThumb1 -24.326973 -0.000000 -32.862282
LeftUpLeg -7.258250 16.167362 -4.318004
LeftLeg 17.392072 -0.000000 -0.000000
LeftFoot -38.365877 38.079076 -27.052713
LeftToeBase 9.673322 -0.000000 -0.000000
RightUpLeg -46.109639 -37.982444 -12.917765
RightLeg 8.338511 -0.000000 -0.000000
RightFoot -13.041355 -28.431267 12.103913
RightToeBase 3.715962 -0.000000 -0.000000
2083
root 0.202833 31.679348 -4.989522 5.587411 -25.797574 -10.682855
Spine 8.318455 2.685778 3.294198
Head 29.306731 22.596535 7.135483
LeftShoulder -21.265492 17.599006 8.974146
LeftArm 4.014023 -30.932852 -77.225530
LeftForeArm -1.267282 -0.000000 110.962340
LeftHand -13.840576 -0.000000 19.608320
LeftHandThumb1 -26.253704 0.000000 33.147579
RightShoulder -9.134814 3.317987 -10.543121
RightArm 16.970784 -22.954694 64.724336
RightForeArm -31.915959 -0.000000 27.681411
RightHand -25.513595 0.000000 0.669803
RightHandThumb1 -24.326973 -0.000000 -32.862282
LeftUpLeg -7.399161 16.103096 -4.204001
LeftLeg 17.409893 -0.000000 -0.000000
LeftFoot -38.384119 38.095302 -27.057083
LeftToeBase 9.664943 -0.000000 -0.000000
RightUpLeg -46.137949 -37.392197 -13.111788
RightLeg 9.723424 -0.000000 -0.000000
RightFoot -13.239465 -28.612199 12.617624
RightToeBase 3.642222 -0.000000 -0.000000
